<svg xmlns="http://www.w3.org/2000/svg" viewBox="0 0 847.08 656.82"><defs><style>.a,.c{fill:none;}.a,.b,.c,.d{stroke:#000;stroke-linecap:round;stroke-miterlimit:10;}.a,.b{stroke-width:17.16px;}.b,.d{fill:#fff;}.c,.d{stroke-width:15px;}</style></defs><path class="a" d="M1242,346V563.64A88.36,88.36,0,0,1,1153.64,652H715.36A88.36,88.36,0,0,1,627,563.64V433c161.4-65.1,352.69-51.14,558,0" transform="translate(-618.42 -73.18)"/><path class="a" d="M1186.5,411.5s15-108,64-131" transform="translate(-618.42 -73.18)"/><circle class="b" cx="650.08" cy="199.32" r="27"/><path class="c" d="M705.5,373.5v-164A57.49,57.49,0,0,1,763,152H957.77a57.49,57.49,0,0,1,57.48,57.48V368.82" transform="translate(-618.42 -73.18)"/><polyline class="c" points="182.27 78.82 182.27 174.02 241.2 146.82 298.62 174.02 298.62 78.82"/><circle class="d" cx="127.58" cy="578.82" r="70.5"/><circle class="d" cx="325.58" cy="578.82" r="70.5"/><circle class="d" cx="515.58" cy="578.82" r="70.5"/><path class="c" d="M1241.5,195.5s61-12,95,30-14,106-14,106" transform="translate(-618.42 -73.18)"/><path class="c" d="M1218.42,136.76s106-20.85,165,52.11S1359.12,373,1359.12,373" transform="translate(-618.42 -73.18)"/><path class="c" d="M1205,84.42s144-28.33,224.29,70.83-33,250.26-33,250.26" transform="translate(-618.42 -73.18)"/></svg>